<svg width="20" height="22" viewBox="0 0 20 22" fill="none" xmlns="http://www.w3.org/2000/svg">
<path d="M9 1C9 1.55228 8.55228 2 8 2H5.5C3.567 2 2 3.567 2 5.5V16.5C2 18.433 3.567 20 5.5 20H8C8.55228 20 9 20.4477 9 21V21C9 21.5523 8.55228 22 8 22H4.5C2.01472 22 0 19.9853 0 17.5V4.5C0 2.01472 2.01472 0 4.5 0H8C8.55228 0 9 0.447715 9 1V1Z" fill="#71007B"/>
<path d="M6 10.1C5.50294 10.1 5.1 10.5029 5.1 11C5.1 11.4971 5.50294 11.9 6 11.9V10.1ZM19.6364 11.6364C19.9879 11.2849 19.9879 10.7151 19.6364 10.3636L13.9088 4.63604C13.5574 4.28457 12.9875 4.28457 12.636 4.63604C12.2846 4.98751 12.2846 5.55736 12.636 5.90883L17.7272 11L12.636 16.0912C12.2846 16.4426 12.2846 17.0125 12.636 17.364C12.9875 17.7154 13.5574 17.7154 13.9088 17.364L19.6364 11.6364ZM6 11V11.9H19V11V10.1H6V11Z" fill="#71007B"/>
</svg>
