<svg width="22" height="21" viewBox="0 0 22 21" fill="currentColor" xmlns="http://www.w3.org/2000/svg">
<path d="M19.7998 0C20.7939 0 21.5995 0.805782 21.5996 1.7998V15C21.5996 15.9941 20.7939 16.7998 19.7998 16.7998H1.7998C0.805783 16.7997 4.45435e-07 15.994 0 15V1.7998C0.000105573 0.805847 0.805847 0.000105586 1.7998 0H19.7998ZM3.38672 2.40039C2.62107 2.40039 2.00014 3.02051 2 3.78613V13.0137C2.00014 13.7793 2.62107 14.4004 3.38672 14.4004H18.2139C18.9794 14.4002 19.5995 13.7792 19.5996 13.0137V3.78613C19.5995 3.02063 18.9794 2.40058 18.2139 2.40039H3.38672Z" />
<rect x="7.7998" y="14.6001" width="6" height="6.4" rx="1.8" />
<rect x="4.7998" y="19" width="12" height="2" rx="1" />
</svg>
